<?xml version="1.0" encoding="utf-8" ?><svg baseProfile="full" height="16px" version="1.1" width="16px" xmlns="http://www.w3.org/2000/svg" xmlns:ev="http://www.w3.org/2001/xml-events" xmlns:xlink="http://www.w3.org/1999/xlink"><defs /><rect fill="rgba(255,255,255,255)" height="1px" width="1px" x="0" y="0" /><rect fill="rgba(255,255,255,255)" height="1px" width="1px" x="1" y="0" /><rect fill="rgba(255,255,255,255)" height="1px" width="1px" x="2" y="0" /><rect fill="rgba(255,255,255,255)" height="1px" width="1px" x="3" y="0" /><rect fill="rgba(255,255,255,255)" height="1px" width="1px" x="4" y="0" /><rect fill="rgba(0,0,0,255)" height="1px" width="1px" x="5" y="0" /><rect fill="rgba(0,0,0,255)" height="1px" width="1px" x="6" y="0" /><rect fill="rgba(0,0,0,255)" height="1px" width="1px" x="7" y="0" /><rect fill="rgba(0,0,0,255)" height="1px" width="1px" x="8" y="0" /><rect fill="rgba(0,0,0,255)" height="1px" width="1px" x="9" y="0" /><rect fill="rgba(0,0,0,255)" height="1px" width="1px" x="10" y="0" /><rect fill="rgba(255,255,255,255)" height="1px" width="1px" x="11" y="0" /><rect fill="rgba(255,255,255,255)" height="1px" width="1px" x="12" y="0" /><rect fill="rgba(255,255,255,255)" height="1px" width="1px" x="13" y="0" /><rect fill="rgba(255,255,255,255)" height="1px" width="1px" x="14" y="0" /><rect fill="rgba(255,255,255,255)" height="1px" width="1px" x="15" y="0" /><rect fill="rgba(255,255,255,255)" height="1px" width="1px" x="0" y="1" /><rect fill="rgba(255,255,255,255)" height="1px" width="1px" x="1" y="1" /><rect fill="rgba(255,255,255,255)" height="1px" width="1px" x="2" y="1" /><rect fill="rgba(0,0,0,255)" height="1px" width="1px" x="3" y="1" /><rect fill="rgba(0,0,0,255)" height="1px" width="1px" x="4" y="1" /><rect fill="rgba(255,0,0,255)" height="1px" width="1px" x="5" y="1" /><rect fill="rgba(255,0,0,255)" height="1px" width="1px" x="6" y="1" /><rect fill="rgba(255,0,0,255)" height="1px" width="1px" x="7" y="1" /><rect fill="rgba(255,0,0,255)" height="1px" width="1px" x="8" y="1" /><rect fill="rgba(255,255,255,255)" height="1px" width="1px" x="9" y="1" /><rect fill="rgba(255,255,255,255)" height="1px" width="1px" x="10" y="1" /><rect fill="rgba(0,0,0,255)" height="1px" width="1px" x="11" y="1" /><rect fill="rgba(0,0,0,255)" height="1px" width="1px" x="12" y="1" /><rect fill="rgba(255,255,255,255)" height="1px" width="1px" x="13" y="1" /><rect fill="rgba(255,255,255,255)" height="1px" width="1px" x="14" y="1" /><rect fill="rgba(255,255,255,255)" height="1px" width="1px" x="15" y="1" /><rect fill="rgba(255,255,255,255)" height="1px" width="1px" x="0" y="2" /><rect fill="rgba(255,255,255,255)" height="1px" width="1px" x="1" y="2" /><rect fill="rgba(0,0,0,255)" height="1px" width="1px" x="2" y="2" /><rect fill="rgba(255,255,255,255)" height="1px" width="1px" x="3" y="2" /><rect fill="rgba(255,255,255,255)" height="1px" width="1px" x="4" y="2" /><rect fill="rgba(255,0,0,255)" height="1px" width="1px" x="5" y="2" /><rect fill="rgba(255,0,0,255)" height="1px" width="1px" x="6" y="2" /><rect fill="rgba(255,0,0,255)" height="1px" width="1px" x="7" y="2" /><rect fill="rgba(255,0,0,255)" height="1px" width="1px" x="8" y="2" /><rect fill="rgba(255,255,255,255)" height="1px" width="1px" x="9" y="2" /><rect fill="rgba(255,255,255,255)" height="1px" width="1px" x="10" y="2" /><rect fill="rgba(255,255,255,255)" height="1px" width="1px" x="11" y="2" /><rect fill="rgba(255,255,255,255)" height="1px" width="1px" x="12" y="2" /><rect fill="rgba(0,0,0,255)" height="1px" width="1px" x="13" y="2" /><rect fill="rgba(255,255,255,255)" height="1px" width="1px" x="14" y="2" /><rect fill="rgba(255,255,255,255)" height="1px" width="1px" x="15" y="2" /><rect fill="rgba(255,255,255,255)" height="1px" width="1px" x="0" y="3" /><rect fill="rgba(0,0,0,255)" height="1px" width="1px" x="1" y="3" /><rect fill="rgba(255,255,255,255)" height="1px" width="1px" x="2" y="3" /><rect fill="rgba(255,255,255,255)" height="1px" width="1px" x="3" y="3" /><rect fill="rgba(255,0,0,255)" height="1px" width="1px" x="4" y="3" /><rect fill="rgba(255,0,0,255)" height="1px" width="1px" x="5" y="3" /><rect fill="rgba(255,0,0,255)" height="1px" width="1px" x="6" y="3" /><rect fill="rgba(255,0,0,255)" height="1px" width="1px" x="7" y="3" /><rect fill="rgba(255,0,0,255)" height="1px" width="1px" x="8" y="3" /><rect fill="rgba(255,0,0,255)" height="1px" width="1px" x="9" y="3" /><rect fill="rgba(255,255,255,255)" height="1px" width="1px" x="10" y="3" /><rect fill="rgba(255,255,255,255)" height="1px" width="1px" x="11" y="3" /><rect fill="rgba(255,255,255,255)" height="1px" width="1px" x="12" y="3" /><rect fill="rgba(255,255,255,255)" height="1px" width="1px" x="13" y="3" /><rect fill="rgba(0,0,0,255)" height="1px" width="1px" x="14" y="3" /><rect fill="rgba(255,255,255,255)" height="1px" width="1px" x="15" y="3" /><rect fill="rgba(255,255,255,255)" height="1px" width="1px" x="0" y="4" /><rect fill="rgba(0,0,0,255)" height="1px" width="1px" x="1" y="4" /><rect fill="rgba(255,255,255,255)" height="1px" width="1px" x="2" y="4" /><rect fill="rgba(255,0,0,255)" height="1px" width="1px" x="3" y="4" /><rect fill="rgba(255,0,0,255)" height="1px" width="1px" x="4" y="4" /><rect fill="rgba(255,255,255,255)" height="1px" width="1px" x="5" y="4" /><rect fill="rgba(255,255,255,255)" height="1px" width="1px" x="6" y="4" /><rect fill="rgba(255,255,255,255)" height="1px" width="1px" x="7" y="4" /><rect fill="rgba(255,255,255,255)" height="1px" width="1px" x="8" y="4" /><rect fill="rgba(255,0,0,255)" height="1px" width="1px" x="9" y="4" /><rect fill="rgba(255,0,0,255)" height="1px" width="1px" x="10" y="4" /><rect fill="rgba(255,255,255,255)" height="1px" width="1px" x="11" y="4" /><rect fill="rgba(255,255,255,255)" height="1px" width="1px" x="12" y="4" /><rect fill="rgba(255,255,255,255)" height="1px" width="1px" x="13" y="4" /><rect fill="rgba(0,0,0,255)" height="1px" width="1px" x="14" y="4" /><rect fill="rgba(255,255,255,255)" height="1px" width="1px" x="15" y="4" /><rect fill="rgba(0,0,0,255)" height="1px" width="1px" x="0" y="5" /><rect fill="rgba(255,0,0,255)" height="1px" width="1px" x="1" y="5" /><rect fill="rgba(255,0,0,255)" height="1px" width="1px" x="2" y="5" /><rect fill="rgba(255,0,0,255)" height="1px" width="1px" x="3" y="5" /><rect fill="rgba(255,255,255,255)" height="1px" width="1px" x="4" y="5" /><rect fill="rgba(255,255,255,255)" height="1px" width="1px" x="5" y="5" /><rect fill="rgba(255,255,255,255)" height="1px" width="1px" x="6" y="5" /><rect fill="rgba(255,255,255,255)" height="1px" width="1px" x="7" y="5" /><rect fill="rgba(255,255,255,255)" height="1px" width="1px" x="8" y="5" /><rect fill="rgba(255,255,255,255)" height="1px" width="1px" x="9" y="5" /><rect fill="rgba(255,0,0,255)" height="1px" width="1px" x="10" y="5" /><rect fill="rgba(255,0,0,255)" height="1px" width="1px" x="11" y="5" /><rect fill="rgba(255,0,0,255)" height="1px" width="1px" x="12" y="5" /><rect fill="rgba(255,0,0,255)" height="1px" width="1px" x="13" y="5" /><rect fill="rgba(255,0,0,255)" height="1px" width="1px" x="14" y="5" /><rect fill="rgba(0,0,0,255)" height="1px" width="1px" x="15" y="5" /><rect fill="rgba(0,0,0,255)" height="1px" width="1px" x="0" y="6" /><rect fill="rgba(255,0,0,255)" height="1px" width="1px" x="1" y="6" /><rect fill="rgba(255,0,0,255)" height="1px" width="1px" x="2" y="6" /><rect fill="rgba(255,0,0,255)" height="1px" width="1px" x="3" y="6" /><rect fill="rgba(255,255,255,255)" height="1px" width="1px" x="4" y="6" /><rect fill="rgba(255,255,255,255)" height="1px" width="1px" x="5" y="6" /><rect fill="rgba(255,255,255,255)" height="1px" width="1px" x="6" y="6" /><rect fill="rgba(255,255,255,255)" height="1px" width="1px" x="7" y="6" /><rect fill="rgba(255,255,255,255)" height="1px" width="1px" x="8" y="6" /><rect fill="rgba(255,255,255,255)" height="1px" width="1px" x="9" y="6" /><rect fill="rgba(255,0,0,255)" height="1px" width="1px" x="10" y="6" /><rect fill="rgba(255,0,0,255)" height="1px" width="1px" x="11" y="6" /><rect fill="rgba(255,255,255,255)" height="1px" width="1px" x="12" y="6" /><rect fill="rgba(255,255,255,255)" height="1px" width="1px" x="13" y="6" /><rect fill="rgba(255,0,0,255)" height="1px" width="1px" x="14" y="6" /><rect fill="rgba(0,0,0,255)" height="1px" width="1px" x="15" y="6" /><rect fill="rgba(0,0,0,255)" height="1px" width="1px" x="0" y="7" /><rect fill="rgba(255,255,255,255)" height="1px" width="1px" x="1" y="7" /><rect fill="rgba(255,0,0,255)" height="1px" width="1px" x="2" y="7" /><rect fill="rgba(255,0,0,255)" height="1px" width="1px" x="3" y="7" /><rect fill="rgba(255,255,255,255)" height="1px" width="1px" x="4" y="7" /><rect fill="rgba(255,255,255,255)" height="1px" width="1px" x="5" y="7" /><rect fill="rgba(255,255,255,255)" height="1px" width="1px" x="6" y="7" /><rect fill="rgba(255,255,255,255)" height="1px" width="1px" x="7" y="7" /><rect fill="rgba(255,255,255,255)" height="1px" width="1px" x="8" y="7" /><rect fill="rgba(255,255,255,255)" height="1px" width="1px" x="9" y="7" /><rect fill="rgba(255,0,0,255)" height="1px" width="1px" x="10" y="7" /><rect fill="rgba(255,255,255,255)" height="1px" width="1px" x="11" y="7" /><rect fill="rgba(255,255,255,255)" height="1px" width="1px" x="12" y="7" /><rect fill="rgba(255,255,255,255)" height="1px" width="1px" x="13" y="7" /><rect fill="rgba(255,255,255,255)" height="1px" width="1px" x="14" y="7" /><rect fill="rgba(0,0,0,255)" height="1px" width="1px" x="15" y="7" /><rect fill="rgba(0,0,0,255)" height="1px" width="1px" x="0" y="8" /><rect fill="rgba(255,255,255,255)" height="1px" width="1px" x="1" y="8" /><rect fill="rgba(255,255,255,255)" height="1px" width="1px" x="2" y="8" /><rect fill="rgba(255,0,0,255)" height="1px" width="1px" x="3" y="8" /><rect fill="rgba(255,0,0,255)" height="1px" width="1px" x="4" y="8" /><rect fill="rgba(255,255,255,255)" height="1px" width="1px" x="5" y="8" /><rect fill="rgba(255,255,255,255)" height="1px" width="1px" x="6" y="8" /><rect fill="rgba(255,255,255,255)" height="1px" width="1px" x="7" y="8" /><rect fill="rgba(255,255,255,255)" height="1px" width="1px" x="8" y="8" /><rect fill="rgba(255,0,0,255)" height="1px" width="1px" x="9" y="8" /><rect fill="rgba(255,0,0,255)" height="1px" width="1px" x="10" y="8" /><rect fill="rgba(255,255,255,255)" height="1px" width="1px" x="11" y="8" /><rect fill="rgba(255,255,255,255)" height="1px" width="1px" x="12" y="8" /><rect fill="rgba(255,255,255,255)" height="1px" width="1px" x="13" y="8" /><rect fill="rgba(255,255,255,255)" height="1px" width="1px" x="14" y="8" /><rect fill="rgba(0,0,0,255)" height="1px" width="1px" x="15" y="8" /><rect fill="rgba(0,0,0,255)" height="1px" width="1px" x="0" y="9" /><rect fill="rgba(255,255,255,255)" height="1px" width="1px" x="1" y="9" /><rect fill="rgba(255,255,255,255)" height="1px" width="1px" x="2" y="9" /><rect fill="rgba(255,0,0,255)" height="1px" width="1px" x="3" y="9" /><rect fill="rgba(255,0,0,255)" height="1px" width="1px" x="4" y="9" /><rect fill="rgba(255,0,0,255)" height="1px" width="1px" x="5" y="9" /><rect fill="rgba(255,0,0,255)" height="1px" width="1px" x="6" y="9" /><rect fill="rgba(255,0,0,255)" height="1px" width="1px" x="7" y="9" /><rect fill="rgba(255,0,0,255)" height="1px" width="1px" x="8" y="9" /><rect fill="rgba(255,0,0,255)" height="1px" width="1px" x="9" y="9" /><rect fill="rgba(255,0,0,255)" height="1px" width="1px" x="10" y="9" /><rect fill="rgba(255,0,0,255)" height="1px" width="1px" x="11" y="9" /><rect fill="rgba(255,255,255,255)" height="1px" width="1px" x="12" y="9" /><rect fill="rgba(255,255,255,255)" height="1px" width="1px" x="13" y="9" /><rect fill="rgba(255,0,0,255)" height="1px" width="1px" x="14" y="9" /><rect fill="rgba(0,0,0,255)" height="1px" width="1px" x="15" y="9" /><rect fill="rgba(0,0,0,255)" height="1px" width="1px" x="0" y="10" /><rect fill="rgba(255,255,255,255)" height="1px" width="1px" x="1" y="10" /><rect fill="rgba(255,0,0,255)" height="1px" width="1px" x="2" y="10" /><rect fill="rgba(255,0,0,255)" height="1px" width="1px" x="3" y="10" /><rect fill="rgba(0,0,0,255)" height="1px" width="1px" x="4" y="10" /><rect fill="rgba(0,0,0,255)" height="1px" width="1px" x="5" y="10" /><rect fill="rgba(0,0,0,255)" height="1px" width="1px" x="6" y="10" /><rect fill="rgba(0,0,0,255)" height="1px" width="1px" x="7" y="10" /><rect fill="rgba(0,0,0,255)" height="1px" width="1px" x="8" y="10" /><rect fill="rgba(0,0,0,255)" height="1px" width="1px" x="9" y="10" /><rect fill="rgba(0,0,0,255)" height="1px" width="1px" x="10" y="10" /><rect fill="rgba(0,0,0,255)" height="1px" width="1px" x="11" y="10" /><rect fill="rgba(255,0,0,255)" height="1px" width="1px" x="12" y="10" /><rect fill="rgba(255,0,0,255)" height="1px" width="1px" x="13" y="10" /><rect fill="rgba(255,0,0,255)" height="1px" width="1px" x="14" y="10" /><rect fill="rgba(0,0,0,255)" height="1px" width="1px" x="15" y="10" /><rect fill="rgba(255,255,255,255)" height="1px" width="1px" x="0" y="11" /><rect fill="rgba(0,0,0,255)" height="1px" width="1px" x="1" y="11" /><rect fill="rgba(0,0,0,255)" height="1px" width="1px" x="2" y="11" /><rect fill="rgba(0,0,0,255)" height="1px" width="1px" x="3" y="11" /><rect fill="rgba(255,255,255,255)" height="1px" width="1px" x="4" y="11" /><rect fill="rgba(255,255,255,255)" height="1px" width="1px" x="5" y="11" /><rect fill="rgba(0,0,0,255)" height="1px" width="1px" x="6" y="11" /><rect fill="rgba(255,255,255,255)" height="1px" width="1px" x="7" y="11" /><rect fill="rgba(255,255,255,255)" height="1px" width="1px" x="8" y="11" /><rect fill="rgba(0,0,0,255)" height="1px" width="1px" x="9" y="11" /><rect fill="rgba(255,255,255,255)" height="1px" width="1px" x="10" y="11" /><rect fill="rgba(255,255,255,255)" height="1px" width="1px" x="11" y="11" /><rect fill="rgba(0,0,0,255)" height="1px" width="1px" x="12" y="11" /><rect fill="rgba(0,0,0,255)" height="1px" width="1px" x="13" y="11" /><rect fill="rgba(0,0,0,255)" height="1px" width="1px" x="14" y="11" /><rect fill="rgba(255,255,255,255)" height="1px" width="1px" x="15" y="11" /><rect fill="rgba(255,255,255,255)" height="1px" width="1px" x="0" y="12" /><rect fill="rgba(255,255,255,255)" height="1px" width="1px" x="1" y="12" /><rect fill="rgba(0,0,0,255)" height="1px" width="1px" x="2" y="12" /><rect fill="rgba(255,255,255,255)" height="1px" width="1px" x="3" y="12" /><rect fill="rgba(255,255,255,255)" height="1px" width="1px" x="4" y="12" /><rect fill="rgba(255,255,255,255)" height="1px" width="1px" x="5" y="12" /><rect fill="rgba(0,0,0,255)" height="1px" width="1px" x="6" y="12" /><rect fill="rgba(255,255,255,255)" height="1px" width="1px" x="7" y="12" /><rect fill="rgba(255,255,255,255)" height="1px" width="1px" x="8" y="12" /><rect fill="rgba(0,0,0,255)" height="1px" width="1px" x="9" y="12" /><rect fill="rgba(255,255,255,255)" height="1px" width="1px" x="10" y="12" /><rect fill="rgba(255,255,255,255)" height="1px" width="1px" x="11" y="12" /><rect fill="rgba(255,255,255,255)" height="1px" width="1px" x="12" y="12" /><rect fill="rgba(0,0,0,255)" height="1px" width="1px" x="13" y="12" /><rect fill="rgba(255,255,255,255)" height="1px" width="1px" x="14" y="12" /><rect fill="rgba(255,255,255,255)" height="1px" width="1px" x="15" y="12" /><rect fill="rgba(255,255,255,255)" height="1px" width="1px" x="0" y="13" /><rect fill="rgba(255,255,255,255)" height="1px" width="1px" x="1" y="13" /><rect fill="rgba(0,0,0,255)" height="1px" width="1px" x="2" y="13" /><rect fill="rgba(255,255,255,255)" height="1px" width="1px" x="3" y="13" /><rect fill="rgba(255,255,255,255)" height="1px" width="1px" x="4" y="13" /><rect fill="rgba(255,255,255,255)" height="1px" width="1px" x="5" y="13" /><rect fill="rgba(255,255,255,255)" height="1px" width="1px" x="6" y="13" /><rect fill="rgba(255,255,255,255)" height="1px" width="1px" x="7" y="13" /><rect fill="rgba(255,255,255,255)" height="1px" width="1px" x="8" y="13" /><rect fill="rgba(255,255,255,255)" height="1px" width="1px" x="9" y="13" /><rect fill="rgba(255,255,255,255)" height="1px" width="1px" x="10" y="13" /><rect fill="rgba(255,255,255,255)" height="1px" width="1px" x="11" y="13" /><rect fill="rgba(255,255,255,255)" height="1px" width="1px" x="12" y="13" /><rect fill="rgba(0,0,0,255)" height="1px" width="1px" x="13" y="13" /><rect fill="rgba(255,255,255,255)" height="1px" width="1px" x="14" y="13" /><rect fill="rgba(255,255,255,255)" height="1px" width="1px" x="15" y="13" /><rect fill="rgba(255,255,255,255)" height="1px" width="1px" x="0" y="14" /><rect fill="rgba(255,255,255,255)" height="1px" width="1px" x="1" y="14" /><rect fill="rgba(255,255,255,255)" height="1px" width="1px" x="2" y="14" /><rect fill="rgba(0,0,0,255)" height="1px" width="1px" x="3" y="14" /><rect fill="rgba(255,255,255,255)" height="1px" width="1px" x="4" y="14" /><rect fill="rgba(255,255,255,255)" height="1px" width="1px" x="5" y="14" /><rect fill="rgba(255,255,255,255)" height="1px" width="1px" x="6" y="14" /><rect fill="rgba(255,255,255,255)" height="1px" width="1px" x="7" y="14" /><rect fill="rgba(255,255,255,255)" height="1px" width="1px" x="8" y="14" /><rect fill="rgba(255,255,255,255)" height="1px" width="1px" x="9" y="14" /><rect fill="rgba(255,255,255,255)" height="1px" width="1px" x="10" y="14" /><rect fill="rgba(255,255,255,255)" height="1px" width="1px" x="11" y="14" /><rect fill="rgba(0,0,0,255)" height="1px" width="1px" x="12" y="14" /><rect fill="rgba(255,255,255,255)" height="1px" width="1px" x="13" y="14" /><rect fill="rgba(255,255,255,255)" height="1px" width="1px" x="14" y="14" /><rect fill="rgba(255,255,255,255)" height="1px" width="1px" x="15" y="14" /><rect fill="rgba(255,255,255,255)" height="1px" width="1px" x="0" y="15" /><rect fill="rgba(255,255,255,255)" height="1px" width="1px" x="1" y="15" /><rect fill="rgba(255,255,255,255)" height="1px" width="1px" x="2" y="15" /><rect fill="rgba(255,255,255,255)" height="1px" width="1px" x="3" y="15" /><rect fill="rgba(0,0,0,255)" height="1px" width="1px" x="4" y="15" /><rect fill="rgba(0,0,0,255)" height="1px" width="1px" x="5" y="15" /><rect fill="rgba(0,0,0,255)" height="1px" width="1px" x="6" y="15" /><rect fill="rgba(0,0,0,255)" height="1px" width="1px" x="7" y="15" /><rect fill="rgba(0,0,0,255)" height="1px" width="1px" x="8" y="15" /><rect fill="rgba(0,0,0,255)" height="1px" width="1px" x="9" y="15" /><rect fill="rgba(0,0,0,255)" height="1px" width="1px" x="10" y="15" /><rect fill="rgba(0,0,0,255)" height="1px" width="1px" x="11" y="15" /><rect fill="rgba(255,255,255,255)" height="1px" width="1px" x="12" y="15" /><rect fill="rgba(255,255,255,255)" height="1px" width="1px" x="13" y="15" /><rect fill="rgba(255,255,255,255)" height="1px" width="1px" x="14" y="15" /><rect fill="rgba(255,255,255,255)" height="1px" width="1px" x="15" y="15" /></svg>